<?xml version="1.0" encoding="UTF-8" standalone="no"?>
<svg width="140px" height="34px" viewBox="0 0 140 34" version="1.1" xmlns="http://www.w3.org/2000/svg" xmlns:xlink="http://www.w3.org/1999/xlink" xmlns:sketch="http://www.bohemiancoding.com/sketch/ns">
    <!-- Generator: sketchtool 3.4 (381) - http://www.bohemiancoding.com/sketch -->
    <title>logo-creativecommons</title>
    <desc>Created with sketchtool.</desc>
    <defs></defs>
    <g id="Page-1" stroke="none" stroke-width="1" fill="none" fill-rule="evenodd" sketch:type="MSPage">
        <g id="Home" sketch:type="MSArtboardGroup" transform="translate(-970.000000, -821.000000)" fill-opacity="0.25" fill="#000000">
            <g id="footer-copy" sketch:type="MSLayerGroup" transform="translate(0.000000, 775.000000)">
                <g id="logo-creativecommons" transform="translate(970.000000, 46.000000)" sketch:type="MSShapeGroup">
                    <path d="M43.4193421,22.6192105 C42.14875,20.3027632 39.9815132,19.3807895 37.4656579,19.3807895 C33.8040132,19.3807895 30.8893421,21.97125 30.8893421,26.3559211 C30.8893421,30.8147368 33.6294737,33.3305921 37.59,33.3305921 C40.1307237,33.3305921 42.2979605,31.9356579 43.4934868,29.8181579 L40.7036184,28.3983553 C40.0805263,29.8932237 39.1341447,30.3417763 37.9386184,30.3417763 C35.8708553,30.3417763 34.9244737,28.6230921 34.9244737,26.3563816 C34.9244737,24.0892105 35.7216447,22.3705263 37.9386184,22.3705263 C38.5363816,22.3705263 39.7323684,22.6942763 40.4296053,24.1891447 L43.4193421,22.6192105 L43.4193421,22.6192105 Z" id="Shape"></path>
                    <path d="M50.5409211,22.3700658 C52.7578947,22.3700658 53.7047368,24.08875 53.7047368,26.20625 C53.7047368,28.6226316 52.7578947,30.3413158 50.5409211,30.3413158 C48.3239474,30.3413158 47.3775658,28.6226316 47.3775658,26.3559211 C47.3775658,24.0892105 48.3239474,22.3700658 50.5409211,22.3700658 L50.5409211,22.3700658 Z M50.5409211,19.3807895 C46.4058553,19.3807895 43.4916447,21.8966447 43.4916447,26.3559211 C43.4916447,30.8147368 46.4058553,33.3305921 50.5409211,33.3305921 C54.6759868,33.3305921 57.5906579,30.8147368 57.5906579,26.3559211 C57.5906579,21.8971053 54.6759868,19.3807895 50.5409211,19.3807895 L50.5409211,19.3807895 Z" id="Shape"></path>
                    <path d="M58.3869079,32.9815132 L62.2728289,32.9815132 L62.2728289,24.7367105 C62.2728289,23.5411842 62.7711184,22.5197368 64.3401316,22.5197368 C65.835,22.5197368 66.2333553,23.3915132 66.2333553,24.6869737 L66.2333553,32.9819737 L70.1192763,32.9819737 L70.1192763,24.8361842 C70.1192763,23.4909868 70.7916447,22.5197368 72.0871053,22.5197368 C73.5566447,22.5197368 74.0798026,23.3666447 74.0798026,25.235 L74.0798026,32.9815132 L77.9657237,32.9815132 L77.9657237,22.8683553 C77.9657237,19.8293421 75.1758553,19.3807895 73.8803947,19.3807895 C72.3357895,19.3807895 70.8911184,19.8542105 69.6209868,21.1492105 C68.74875,19.9785526 67.6282895,19.3807895 66.1085526,19.3807895 C64.9130263,19.3807895 63.2689474,19.7294079 62.2723684,20.9005263 L62.2723684,19.7298684 L58.3864474,19.7298684 L58.3864474,32.9815132 L58.3869079,32.9815132 Z" id="Shape"></path>
                    <path d="M79.2091447,32.9815132 L83.0950658,32.9815132 L83.0950658,24.7367105 C83.0950658,23.5411842 83.5933553,22.5197368 85.1623684,22.5197368 C86.6572368,22.5197368 87.0555921,23.3915132 87.0555921,24.6869737 L87.0555921,32.9819737 L90.9415132,32.9819737 L90.9415132,24.8361842 C90.9415132,23.4909868 91.6138816,22.5197368 92.9088816,22.5197368 C94.3784211,22.5197368 94.9020395,23.3666447 94.9020395,25.235 L94.9020395,32.9815132 L98.7879605,32.9815132 L98.7879605,22.8683553 C98.7879605,19.8293421 95.9976316,19.3807895 94.7026316,19.3807895 C93.1580263,19.3807895 91.7138158,19.8542105 90.4432237,21.1492105 C89.5714474,19.9785526 88.4505263,19.3807895 86.9307895,19.3807895 C85.7352632,19.3807895 84.0911842,19.7294079 83.0946053,20.9005263 L83.0946053,19.7298684 L79.2086842,19.7298684 L79.2086842,32.9815132 L79.2091447,32.9815132 Z" id="Shape"></path>
                    <path d="M106.632105,22.3700658 C108.848618,22.3700658 109.795461,24.08875 109.795461,26.20625 C109.795461,28.6226316 108.848618,30.3413158 106.632105,30.3413158 C104.415132,30.3413158 103.468289,28.6226316 103.468289,26.3559211 C103.468289,24.0892105 104.415132,22.3700658 106.632105,22.3700658 L106.632105,22.3700658 Z M106.632105,19.3807895 C102.497039,19.3807895 99.5823684,21.8966447 99.5823684,26.3559211 C99.5823684,30.8147368 102.496579,33.3305921 106.632105,33.3305921 C110.767171,33.3305921 113.681842,30.8147368 113.681842,26.3559211 C113.681842,21.8971053 110.767171,19.3807895 106.632105,19.3807895 L106.632105,19.3807895 Z" id="Shape"></path>
                    <path d="M114.727237,32.9815132 L118.613158,32.9815132 L118.613158,24.7367105 C118.613158,23.5411842 119.111447,22.5197368 120.680921,22.5197368 C122.175329,22.5197368 122.573684,23.3915132 122.573684,24.6869737 L122.573684,32.9819737 L126.459605,32.9819737 L126.459605,23.1921053 C126.459605,21.1994079 125.587368,19.3807895 122.448882,19.3807895 C121.253355,19.3807895 119.609276,19.7294079 118.612697,20.9005263 L118.612697,19.7298684 L114.726776,19.7298684 L114.726776,32.9815132 L114.727237,32.9815132 Z" id="Shape"></path>
                    <path d="M139.435395,21.2993421 C137.641645,20.1038158 135.624539,19.38125 133.581645,19.38125 C130.890789,19.38125 127.976579,20.6767105 127.976579,24.0146053 C127.976579,28.7225658 135.823026,27.0784868 135.823026,29.14625 C135.823026,30.3422368 134.353947,30.4914474 133.705526,30.4914474 C131.937105,30.4914474 130.716711,29.7693421 129.520724,28.6230921 L127.104342,30.7152632 C129.047763,32.5090132 130.691382,33.3310526 133.581184,33.3310526 C136.470066,33.3310526 139.559276,32.0853289 139.559276,28.5982237 C139.559276,23.6411184 131.712829,25.5094737 131.712829,23.2427632 C131.712829,22.5703947 132.410066,22.2217763 133.381316,22.2217763 C134.602171,22.2217763 136.271118,22.7200658 137.042961,23.6415789 L139.435395,21.2993421 L139.435395,21.2993421 Z" id="Shape"></path>
                    <path d="M43.4193421,7.37348684 C42.14875,5.05703947 39.9815132,4.13506579 37.4656579,4.13506579 C33.8040132,4.13506579 30.8893421,6.72552632 30.8893421,11.1097368 C30.8893421,15.5685526 33.6294737,18.0848684 37.59,18.0848684 C40.1307237,18.0848684 42.2979605,16.6899342 43.4934868,14.5724342 L40.7036184,13.1526316 C40.0805263,14.6475 39.1341447,15.0955921 37.9386184,15.0955921 C35.8708553,15.0955921 34.9244737,13.3769079 34.9244737,11.1097368 C34.9244737,8.84302632 35.7216447,7.12434211 37.9386184,7.12434211 C38.5363816,7.12434211 39.7323684,7.44809211 40.4296053,8.94296053 L43.4193421,7.37348684 L43.4193421,7.37348684 Z" id="Shape"></path>
                    <path d="M44.3671053,17.7357895 L48.2530263,17.7357895 L48.2530263,10.0634211 C48.2530263,8.59388158 49.1745395,8.19506579 51.4914474,7.92105263 L51.9146711,7.87131579 L51.8898026,4.43394737 C50.5197368,4.53388158 49.0999342,5.03171053 48.2530263,5.82888158 L48.2530263,4.48368421 L44.3671053,4.48368421 L44.3671053,17.7357895 L44.3671053,17.7357895 Z" id="Shape"></path>
                    <path d="M65.1119737,11.9069079 C65.0871053,7.82157895 63.4430263,4.13506579 58.6102632,4.13506579 C54.5746711,4.13506579 52.1085526,6.82546053 52.1085526,11.5085526 C52.1085526,15.2448026 54.5000658,18.0848684 58.6102632,18.0848684 C61.5746711,18.0848684 63.6917105,16.9142105 65.0369079,14.4232237 L62.1222368,12.9034868 C61.0013158,14.4978289 60.3284868,15.2448026 58.8838158,15.2448026 C57.6385526,15.2448026 56.0193421,14.4476316 55.9944737,11.9069079 L65.1119737,11.9069079 L65.1119737,11.9069079 Z M55.9451974,9.51585526 C56.1192763,7.77184211 57.4644737,6.97513158 58.5853947,6.97513158 C59.7063158,6.97513158 61.10125,7.57289474 61.2255921,9.51585526 L55.9451974,9.51585526 L55.9451974,9.51585526 Z" id="Shape"></path>
                    <path d="M74.0259211,12.2057895 C74.0259211,14.2233553 72.8801316,15.2448026 71.3603947,15.2448026 C70.4135526,15.2448026 69.5417763,14.79625 69.5417763,13.7503947 C69.5417763,12.6792105 70.4384211,12.3057237 71.4101316,12.0317105 L74.0259211,11.2842763 L74.0259211,12.2057895 L74.0259211,12.2057895 Z M77.7621711,7.97125 C77.7373026,4.98197368 75.4705921,4.13506579 71.8586842,4.13506579 C70.0649342,4.13506579 66.5280921,4.48368421 66.4032895,8.295 L70.14,8.295 C70.3394079,6.97467105 70.9367105,6.52657895 72.1824342,6.52657895 C73.22875,6.52657895 74.0259211,6.94980263 74.0259211,7.94638158 L74.0259211,9.04243421 L72.6061184,9.24184211 C68.3715789,9.83960526 65.8055263,10.9605263 65.8055263,14.1492105 C65.8055263,16.6899342 67.69875,18.0848684 70.2394737,18.0848684 C71.6344079,18.0848684 73.5773684,17.4125 74.2248684,16.3661842 L74.2746053,16.3661842 C74.2994737,16.8147368 74.3745395,17.2876974 74.52375,17.73625 L78.1107895,17.73625 C77.7870395,16.9142105 77.7621711,15.8932237 77.7621711,14.97125 L77.7621711,7.97125 L77.7621711,7.97125 Z" id="Shape"></path>
                    <path d="M86.9008553,4.73282895 L84.5839474,4.73282895 L84.5839474,0.896644737 L80.6980263,0.896644737 L80.6980263,4.73282895 L78.8052632,4.73282895 L78.8052632,7.12388158 L80.6980263,7.12388158 L80.6980263,14.0990132 C80.6980263,16.0171053 81.1714474,18.0844079 84.4849342,18.0844079 C85.3318421,18.0844079 86.4776316,17.9849342 86.9759211,17.9347368 L86.9759211,14.8708553 C86.7760526,14.8957237 86.2284868,14.9454605 85.8052632,14.9454605 C85.1071053,14.9454605 84.5844079,14.6714474 84.5844079,13.6251316 L84.5844079,7.12434211 L86.9013158,7.12434211 L86.9013158,4.73282895 L86.9008553,4.73282895 Z" id="Shape"></path>
                    <path d="M88.3639474,4.48368421 L88.3639474,17.7357895 L92.2498684,17.7357895 L92.2498684,4.48368421 L88.3639474,4.48368421 L88.3639474,4.48368421 Z M92.2503289,2.98927632 L92.2503289,0 L88.3644079,0 L88.3644079,2.98927632 L92.2503289,2.98927632 L92.2503289,2.98927632 Z" id="Shape"></path>
                    <path d="M97.4796053,17.7357895 L101.390395,17.7357895 L105.924276,4.48368421 L101.789211,4.48368421 L99.4971711,13.8498684 L99.4478947,13.8498684 L97.1553947,4.48368421 L92.9959211,4.48368421 L97.4796053,17.7357895 Z" id="Shape"></path>
                    <path d="M118.473158,11.9069079 C118.448289,7.82157895 116.804211,4.13506579 111.971908,4.13506579 C107.935855,4.13506579 105.470658,6.82546053 105.470658,11.5085526 C105.470658,15.2448026 107.86125,18.0848684 111.971908,18.0848684 C114.936316,18.0848684 117.053355,16.9142105 118.398553,14.4232237 L115.483882,12.9034868 C114.362961,14.4978289 113.690132,15.2448026 112.245921,15.2448026 C111.000658,15.2448026 109.380987,14.4476316 109.356579,11.9069079 L118.473158,11.9069079 L118.473158,11.9069079 Z M109.306382,9.51585526 C109.480921,7.77184211 110.825658,6.97513158 111.946579,6.97513158 C113.0675,6.97513158 114.462895,7.57289474 114.587237,9.51585526 L109.306382,9.51585526 L109.306382,9.51585526 Z" id="Shape"></path>
                    <g id="Group" transform="translate(0.000000, 3.684211)">
                        <path d="M14.5535526,0.227960526 C10.5552632,0.227960526 7.03684211,1.70763158 4.31789474,4.46618421 C1.51927632,7.30532895 0,10.9835526 0,14.8220395 C0,18.7001316 1.47921053,22.2986842 4.27828947,25.0977632 C7.07690789,27.8963816 10.7155263,29.4156579 14.5535526,29.4156579 C18.3915789,29.4156579 22.1103289,27.8963816 24.9890789,25.0576974 C27.7080263,22.3788158 29.1471711,18.8203289 29.1471711,14.8220395 C29.1471711,10.8638158 27.7080263,7.26526316 24.9490132,4.50625 C22.1503947,1.70763158 18.5518421,0.227960526 14.5535526,0.227960526 L14.5535526,0.227960526 Z M14.5936184,2.86723684 C17.8721053,2.86723684 20.7909211,4.10651316 23.0700658,6.38565789 C25.3086842,8.62473684 26.5083553,11.5836184 26.5083553,14.8220395 C26.5083553,18.1005263 25.34875,20.9792763 23.1096711,23.17875 C20.7503947,25.4975 17.7118421,26.7372368 14.5931579,26.7372368 C11.4344079,26.7372368 8.47552632,25.4979605 6.19684211,23.2188158 C3.91769737,20.9392105 2.63835526,17.9407237 2.63835526,14.8220395 C2.63835526,11.6632895 3.91769737,8.66480263 6.19684211,6.34559211 C8.43592105,4.06690789 11.3151316,2.86723684 14.5936184,2.86723684 L14.5936184,2.86723684 Z" id="Shape"></path>
                        <path d="M14.4052632,12.3969079 C13.5809211,10.89375 12.1744737,10.2955263 10.5419079,10.2955263 C8.16559211,10.2955263 6.27421053,11.9764474 6.27421053,14.8220395 C6.27421053,17.7155263 8.05230263,19.3485526 10.6229605,19.3485526 C12.2721053,19.3485526 13.6780921,18.4431579 14.4540789,17.0694079 L12.6432895,16.1478947 C12.2389474,17.1177632 11.6250658,17.4088158 10.8490789,17.4088158 C9.50710526,17.4088158 8.89322368,16.2934211 8.89322368,14.8225 C8.89322368,13.3515789 9.41039474,12.2357237 10.8490789,12.2357237 C11.2368421,12.2357237 12.0128289,12.4461842 12.4655263,13.4155921 L14.4052632,12.3969079 L14.4052632,12.3969079 Z" id="Shape"></path>
                        <path d="M22.8246053,12.3969079 C21.9998026,10.89375 20.5938158,10.2955263 18.96125,10.2955263 C16.5849342,10.2955263 14.6930921,11.9764474 14.6930921,14.8220395 C14.6930921,17.7155263 16.4716447,19.3485526 19.0418421,19.3485526 C20.6909868,19.3485526 22.0969737,18.4431579 22.8729605,17.0694079 L21.0621711,16.1478947 C20.6582895,17.1177632 20.0439474,17.4088158 19.2679605,17.4088158 C17.9264474,17.4088158 17.3116447,16.2934211 17.3116447,14.8225 C17.3116447,13.3515789 17.8292763,12.2357237 19.2679605,12.2357237 C19.6557237,12.2357237 20.4317105,12.4461842 20.8848684,13.4155921 L22.8246053,12.3969079 L22.8246053,12.3969079 Z" id="Shape"></path>
                    </g>
                </g>
            </g>
        </g>
    </g>
</svg>