<svg width="140" height="34" viewBox="0 0 140 34" xmlns="http://www.w3.org/2000/svg"><title>logo-creativecommons</title><g fill-opacity=".25" fill-rule="evenodd"><path d="M43.42 22.62c-1.27-2.317-3.438-3.24-5.954-3.24-3.662 0-6.577 2.59-6.577 6.976 0 4.46 2.74 6.975 6.7 6.975 2.54 0 4.7-1.39 5.9-3.51L40.7 28.4c-.62 1.495-1.57 1.944-2.763 1.944-2.07 0-3.016-1.72-3.016-3.986 0-2.267.8-3.985 3.02-3.985.6 0 1.79.324 2.49 1.82l2.99-1.57zm7.12-.25c2.218 0 3.165 1.72 3.165 3.836 0 2.417-.947 4.135-3.164 4.135-2.21 0-3.16-1.71-3.16-3.98s.95-3.98 3.17-3.98zm0-2.99c-4.134 0-7.048 2.517-7.048 6.976 0 4.46 2.914 6.975 7.05 6.975 4.134 0 7.05-2.51 7.05-6.97s-2.916-6.97-7.05-6.97zm7.847 13.602h3.886v-8.245c0-1.196.498-2.217 2.067-2.217 1.495 0 1.893.872 1.893 2.167v8.295h3.886v-8.146c0-1.345.67-2.316 1.96-2.316 1.47 0 1.99.847 1.99 2.715v7.747h3.886V22.868c0-3.04-2.79-3.487-4.086-3.487-1.544 0-2.99.48-4.26 1.77-.87-1.17-1.992-1.77-3.51-1.77-1.197 0-2.84.35-3.84 1.52v-1.17h-3.88v13.26zm20.823 0h3.885v-8.245c0-1.196.498-2.217 2.067-2.217 1.495 0 1.894.872 1.894 2.167v8.295h3.886v-8.146c0-1.345.672-2.316 1.967-2.316 1.46 0 1.99.847 1.99 2.715v7.747h3.88V22.868c0-3.04-2.79-3.487-4.086-3.487-1.545 0-2.99.48-4.26 1.77-.87-1.17-1.99-1.77-3.51-1.77-1.197 0-2.84.35-3.837 1.52v-1.17h-3.88v13.26zm27.422-10.612c2.217 0 3.163 1.72 3.163 3.836 0 2.417-.946 4.135-3.163 4.135-2.217 0-3.164-1.71-3.164-3.98s.947-3.98 3.164-3.98zm0-2.99c-4.135 0-7.05 2.517-7.05 6.976 0 4.46 2.915 6.975 7.05 6.975s7.05-2.51 7.05-6.97-2.915-6.97-7.05-6.97zm8.095 13.602h3.886v-8.245c0-1.196.498-2.217 2.068-2.217 1.5 0 1.9.872 1.9 2.167v8.295h3.89v-9.79c0-1.993-.873-3.81-4.01-3.81-1.197 0-2.84.347-3.837 1.52V19.73h-3.886v13.252zM139.435 21.3c-1.793-1.196-3.81-1.92-5.853-1.92-2.69 0-5.605 1.297-5.605 4.635 0 4.708 7.846 3.063 7.846 5.13 0 1.197-1.47 1.346-2.117 1.346-1.77 0-2.99-.72-4.185-1.86l-2.41 2.09c1.947 1.797 3.59 2.62 6.48 2.62s5.98-1.246 5.98-4.733c0-4.956-7.847-3.09-7.847-5.354 0-.674.697-1.02 1.668-1.02 1.223 0 2.89.496 3.664 1.42l2.39-2.345zM43.42 7.373c-1.27-2.316-3.438-3.238-5.954-3.238-3.662 0-6.577 2.59-6.577 6.975 0 4.46 2.74 6.975 6.7 6.975 2.54 0 4.7-1.395 5.9-3.513l-2.79-1.42c-.62 1.496-1.57 1.944-2.77 1.944-2.07 0-3.016-1.72-3.016-3.986 0-2.267.8-3.986 3.015-3.986.596 0 1.792.324 2.49 1.82l2.99-1.57zm.947 10.363h3.886v-7.673c0-1.47.922-1.868 3.238-2.142l.43-.05-.02-3.43c-1.37.1-2.79.6-3.637 1.398v-1.35h-3.89V17.74zm20.745-5.83c-.025-4.084-1.67-7.77-6.502-7.77-4.035 0-6.5 2.69-6.5 7.373 0 3.73 2.39 6.57 6.5 6.57 2.965 0 5.082-1.17 6.427-3.66l-2.915-1.52c-1.12 1.59-1.794 2.34-3.238 2.34-1.245 0-2.865-.8-2.89-3.34h9.118zm-9.167-2.39c.174-1.744 1.52-2.54 2.64-2.54s2.516.597 2.64 2.54h-5.28zm18.08 2.69c0 2.017-1.145 3.04-2.665 3.04-.946 0-1.818-.45-1.818-1.496 0-1.07.896-1.444 1.868-1.718l2.616-.748v.922zm3.737-4.235c-.025-2.98-2.29-3.83-5.903-3.83-1.8 0-5.34.35-5.46 4.16h3.73c.2-1.32.797-1.77 2.04-1.77 1.05 0 1.846.428 1.846 1.42v1.09l-1.42.2c-4.234.6-6.8 1.72-6.8 4.91 0 2.54 1.893 3.938 4.433 3.938 1.394 0 3.337-.672 3.985-1.72h.05c.023.45.1.923.25 1.37H78.1c-.323-.82-.35-1.842-.35-2.764v-7zM86.9 4.74h-2.316V.898h-3.886v3.835h-1.893v2.39h1.893V14.1c0 1.917.473 3.984 3.787 3.984.847 0 1.993-.1 2.49-.15V14.87c-.2.027-.747.076-1.17.076-.698 0-1.22-.274-1.22-1.32v-6.5H86.9V4.732zm1.464-.25v13.25h3.886V4.483h-3.886zm3.886-1.5V0h-3.886v2.99h3.886zm5.23 14.746h3.91l4.534-13.252h-4.135l-2.3 9.366h-.05l-2.29-9.366h-4.16l4.483 13.252zm20.993-5.83c-.025-4.084-1.67-7.77-6.5-7.77-4.037 0-6.502 2.69-6.502 7.373 0 3.73 2.39 6.57 6.51 6.57 2.965 0 5.08-1.17 6.428-3.66l-2.915-1.52c-1.12 1.59-1.794 2.34-3.24 2.34-1.244 0-2.864-.8-2.89-3.34h9.118zm-9.167-2.39c.175-1.744 1.52-2.54 2.64-2.54s2.517.597 2.64 2.54h-5.28zM14.554 3.913c-4 0-7.517 1.48-10.236 4.238C1.518 10.99 0 14.67 0 18.51c0 3.878 1.48 7.477 4.278 10.276 2.8 2.8 6.438 4.318 10.276 4.318s7.556-1.52 10.435-4.357c2.71-2.68 4.15-6.237 4.15-10.236 0-3.96-1.44-7.553-4.2-10.312C22.14 5.4 18.543 3.92 14.545 3.92zm.04 2.64c3.278 0 6.197 1.24 8.476 3.518 2.24 2.24 3.438 5.2 3.438 8.44 0 3.28-1.16 6.16-3.398 8.36-2.36 2.32-5.398 3.56-8.517 3.56-3.16 0-6.117-1.238-8.396-3.517-2.28-2.28-3.56-5.28-3.56-8.397 0-3.16 1.28-6.157 3.56-8.476 2.24-2.28 5.118-3.48 8.397-3.48z"/><path d="M14.405 16.08c-.824-1.502-2.23-2.1-3.863-2.1-2.376 0-4.268 1.68-4.268 4.526 0 2.894 1.778 4.527 4.35 4.527 1.648 0 3.054-.906 3.83-2.28l-1.81-.92c-.405.97-1.02 1.26-1.795 1.26-1.35 0-1.96-1.115-1.96-2.586 0-1.47.51-2.587 1.95-2.587.387 0 1.163.21 1.616 1.18l1.94-1.02zm8.42 0c-.825-1.502-2.23-2.1-3.864-2.1-2.37 0-4.26 1.68-4.26 4.526 0 2.894 1.78 4.527 4.35 4.527 1.65 0 3.056-.906 3.83-2.28l-1.81-.92c-.403.97-1.02 1.26-1.793 1.26-1.342 0-1.956-1.115-1.956-2.586 0-1.47.517-2.587 1.956-2.587.386 0 1.162.21 1.615 1.18l1.94-1.02z"/></g></svg>