<svg width="140" height="34" viewBox="0 0 140 34" xmlns="http://www.w3.org/2000/svg"><title>logo-creativecommons</title><g fill-opacity=".25" fill-rule="evenodd"><path d="M43.42 22.62c-1.271-2.317-3.438-3.24-5.954-3.24-3.662 0-6.577 2.591-6.577 6.976 0 4.459 2.74 6.975 6.701 6.975 2.54 0 4.708-1.395 5.903-3.513l-2.79-1.42c-.622 1.495-1.569 1.944-2.764 1.944-2.068 0-3.015-1.719-3.015-3.986 0-2.267.798-3.985 3.015-3.985.597 0 1.793.323 2.49 1.818l2.99-1.57zm7.12-.25c2.218 0 3.165 1.719 3.165 3.836 0 2.417-.947 4.135-3.164 4.135s-3.163-1.718-3.163-3.985.946-3.986 3.163-3.986zm0-2.99c-4.134 0-7.048 2.517-7.048 6.976s2.914 6.975 7.049 6.975 7.05-2.516 7.05-6.975-2.915-6.975-7.05-6.975zm7.847 13.602h3.886v-8.245c0-1.196.498-2.217 2.067-2.217 1.495 0 1.893.872 1.893 2.167v8.295h3.886v-8.146c0-1.345.673-2.316 1.968-2.316 1.47 0 1.993.847 1.993 2.715v7.747h3.886V22.868c0-3.039-2.79-3.487-4.086-3.487-1.544 0-2.989.473-4.259 1.768-.872-1.17-1.993-1.768-3.512-1.768-1.196 0-2.84.348-3.837 1.52V19.73h-3.886v13.252zm20.823 0h3.885v-8.245c0-1.196.498-2.217 2.067-2.217 1.495 0 1.894.872 1.894 2.167v8.295h3.886v-8.146c0-1.345.672-2.316 1.967-2.316 1.47 0 1.993.847 1.993 2.715v7.747h3.886V22.868c0-3.039-2.79-3.487-4.085-3.487-1.545 0-2.99.473-4.26 1.768-.872-1.17-1.992-1.768-3.512-1.768-1.196 0-2.84.348-3.836 1.52V19.73h-3.886v13.252zm27.422-10.612c2.217 0 3.163 1.719 3.163 3.836 0 2.417-.946 4.135-3.163 4.135-2.217 0-3.164-1.718-3.164-3.985s.947-3.986 3.164-3.986zm0-2.99c-4.135 0-7.05 2.517-7.05 6.976s2.915 6.975 7.05 6.975 7.05-2.516 7.05-6.975-2.915-6.975-7.05-6.975zm8.095 13.602h3.886v-8.245c0-1.196.498-2.217 2.068-2.217 1.494 0 1.893.872 1.893 2.167v8.295h3.886v-9.79c0-1.993-.873-3.811-4.011-3.811-1.196 0-2.84.348-3.836 1.52V19.73h-3.886v13.252zM139.435 21.3c-1.793-1.196-3.81-1.919-5.853-1.919-2.691 0-5.605 1.296-5.605 4.634 0 4.708 7.846 3.063 7.846 5.131 0 1.196-1.47 1.345-2.117 1.345-1.769 0-2.99-.722-4.185-1.868l-2.417 2.092c1.944 1.794 3.587 2.616 6.477 2.616s5.978-1.246 5.978-4.733c0-4.957-7.846-3.089-7.846-5.355 0-.673.697-1.021 1.668-1.021 1.221 0 2.89.498 3.662 1.42l2.392-2.343zM43.42 7.373c-1.271-2.316-3.438-3.238-5.954-3.238-3.662 0-6.577 2.59-6.577 6.975 0 4.459 2.74 6.975 6.701 6.975 2.54 0 4.708-1.395 5.903-3.513l-2.79-1.42c-.622 1.496-1.569 1.944-2.764 1.944-2.068 0-3.015-1.72-3.015-3.986 0-2.267.798-3.986 3.015-3.986.597 0 1.793.324 2.49 1.819l2.99-1.57zm.947 10.363h3.886v-7.673c0-1.47.922-1.868 3.238-2.142l.424-.05-.025-3.437c-1.37.1-2.79.598-3.637 1.395V4.484h-3.886v13.252zm20.745-5.829c-.025-4.085-1.669-7.772-6.502-7.772-4.035 0-6.501 2.69-6.501 7.374 0 3.736 2.391 6.576 6.501 6.576 2.965 0 5.082-1.17 6.427-3.662l-2.915-1.52c-1.12 1.595-1.794 2.342-3.238 2.342-1.245 0-2.865-.797-2.89-3.338h9.118zm-9.167-2.391c.174-1.744 1.52-2.54 2.64-2.54 1.121 0 2.516.597 2.64 2.54h-5.28zm18.081 2.69c0 2.017-1.146 3.039-2.666 3.039-.946 0-1.818-.449-1.818-1.495 0-1.07.896-1.444 1.868-1.718l2.616-.748v.922zm3.736-4.235c-.025-2.989-2.291-3.836-5.903-3.836-1.794 0-5.33.349-5.456 4.16h3.737c.2-1.32.797-1.768 2.042-1.768 1.047 0 1.844.423 1.844 1.42v1.095l-1.42.2c-4.234.598-6.8 1.719-6.8 4.907 0 2.54 1.893 3.936 4.433 3.936 1.395 0 3.338-.672 3.986-1.719h.05c.024.449.1.922.249 1.37h3.587c-.324-.822-.349-1.843-.349-2.765v-7zM86.9 4.733h-2.316V.897h-3.886v3.836h-1.893v2.39h1.893V14.1c0 1.918.473 3.985 3.787 3.985.847 0 1.993-.1 2.49-.15v-3.063c-.199.025-.747.074-1.17.074-.698 0-1.22-.274-1.22-1.32v-6.5H86.9V4.732zm1.464-.249v13.252h3.886V4.484h-3.886zm3.886-1.495V0h-3.886v2.99h3.886zm5.23 14.747h3.91l4.534-13.252h-4.135l-2.292 9.366h-.05l-2.292-9.366h-4.16l4.485 13.252zm20.993-5.829c-.025-4.085-1.669-7.772-6.501-7.772-4.036 0-6.501 2.69-6.501 7.374 0 3.736 2.39 6.576 6.5 6.576 2.965 0 5.082-1.17 6.428-3.662l-2.915-1.52c-1.121 1.595-1.794 2.342-3.238 2.342-1.245 0-2.865-.797-2.89-3.338h9.117zm-9.167-2.391c.175-1.744 1.52-2.54 2.64-2.54 1.121 0 2.517.597 2.641 2.54h-5.28zM14.554 3.912c-3.999 0-7.517 1.48-10.236 4.238C1.519 10.99 0 14.668 0 18.506c0 3.878 1.48 7.477 4.278 10.276 2.799 2.799 6.438 4.318 10.276 4.318s7.556-1.52 10.435-4.358c2.719-2.679 4.158-6.237 4.158-10.236 0-3.958-1.439-7.557-4.198-10.316-2.799-2.798-6.397-4.278-10.395-4.278zm.04 2.64c3.278 0 6.197 1.239 8.476 3.518 2.239 2.239 3.438 5.198 3.438 8.436 0 3.279-1.16 6.157-3.398 8.357-2.36 2.319-5.398 3.558-8.517 3.558-3.159 0-6.117-1.239-8.396-3.518-2.28-2.28-3.559-5.278-3.559-8.397 0-3.158 1.28-6.157 3.559-8.476 2.239-2.28 5.118-3.48 8.397-3.48z"/><path d="M14.405 16.081c-.824-1.503-2.23-2.101-3.863-2.101-2.376 0-4.268 1.68-4.268 4.526 0 2.894 1.778 4.527 4.349 4.527 1.65 0 3.055-.906 3.831-2.28l-1.81-.92c-.405.969-1.019 1.26-1.795 1.26-1.342 0-1.956-1.115-1.956-2.586 0-1.471.517-2.587 1.956-2.587.388 0 1.164.21 1.617 1.18l1.94-1.019zm8.42 0C22 14.578 20.594 13.98 18.96 13.98c-2.376 0-4.268 1.68-4.268 4.526 0 2.894 1.779 4.527 4.349 4.527 1.649 0 3.055-.906 3.831-2.28l-1.81-.92c-.405.969-1.02 1.26-1.795 1.26-1.342 0-1.956-1.115-1.956-2.586 0-1.471.517-2.587 1.956-2.587.388 0 1.164.21 1.617 1.18l1.94-1.019z"/></g></svg>